<svg width="14" height="14" viewBox="0 0 14 14" fill="none"
  xmlns="http://www.w3.org/2000/svg">
  <path d="M13.2222 6.22222H7.77778V0.777778C7.77778 0.348444 7.42933 0 7 0C6.57067 0 6.22222 0.348444 6.22222 0.777778V6.22222H0.777778C0.348444 6.22222 0 6.57067 0 7C0 7.42933 0.348444 7.77778 0.777778 7.77778H6.22222V13.2222C6.22222 13.6516 6.57067 14 7 14C7.42933 14 7.77778 13.6516 7.77778 13.2222V7.77778H13.2222C13.6516 7.77778 14 7.42933 14 7C14 6.57067 13.6516 6.22222 13.2222 6.22222Z" fill="#1E2328"/>
</svg>
