<svg width="18" height="18" viewBox="0 0 18 18" fill="none" xmlns="http://www.w3.org/2000/svg">
<path d="M9.00002 0.666748C4.39752 0.666748 0.666687 4.39758 0.666687 9.00008C0.666687 13.6026 4.39752 17.3334 9.00002 17.3334C13.6025 17.3334 17.3334 13.6026 17.3334 9.00008C17.3334 4.39758 13.6025 0.666748 9.00002 0.666748ZM12.3334 9.83342H9.83335V12.3334C9.83335 12.7934 9.46002 13.1667 9.00002 13.1667C8.54002 13.1667 8.16669 12.7934 8.16669 12.3334V9.83342H5.66669C5.20669 9.83342 4.83335 9.46008 4.83335 9.00008C4.83335 8.54008 5.20669 8.16675 5.66669 8.16675H8.16669V5.66675C8.16669 5.20675 8.54002 4.83342 9.00002 4.83342C9.46002 4.83342 9.83335 5.20675 9.83335 5.66675V8.16675H12.3334C12.7934 8.16675 13.1667 8.54008 13.1667 9.00008C13.1667 9.46008 12.7934 9.83342 12.3334 9.83342Z" fill="white"/>
</svg>
