<svg width="32" height="38" viewBox="0 0 32 38" fill="none" xmlns="http://www.w3.org/2000/svg">
<path fill-rule="evenodd" clip-rule="evenodd" d="M0.000119255 4.78964V13.7529L9.05775 4.78964H0.000119255ZM17.9376 4.96528L0 22.716V31.679L23.6279 8.29724C22.2038 6.60305 20.2084 5.39626 17.9376 4.96528ZM2.6868 37.9836L25.8785 15.0334C25.7602 17.1678 24.9407 19.1806 23.5523 20.7887C24.5266 21.7224 25.2951 22.8343 25.8203 24.0541L11.7444 37.9836H2.6868Z" fill="#042825"/>
<path fill-rule="evenodd" clip-rule="evenodd" d="M20.9268 9.15527e-05H13.8972L4.83984 8.96314V17.9264L22.7774 0.175694C22.1776 0.0619301 21.5593 9.15527e-05 20.9268 9.15527e-05ZM30.7348 9.70604C30.7348 7.35122 29.8826 5.19017 28.4678 3.50755L4.83984 26.8894V33.1938H7.52665L30.7183 10.2437C30.7281 10.0653 30.7348 9.88612 30.7348 9.70604ZM30.66 19.2645C31.1864 20.4871 31.4688 21.8181 31.4688 23.1865C31.4688 23.2026 31.4685 23.2189 31.4681 23.2347C31.4685 23.2552 31.4688 23.2722 31.4688 23.2897C31.4688 26.8312 29.7732 29.8618 26.8159 31.6084C25.185 32.6457 23.2977 33.1938 21.3564 33.1938H16.5841L30.66 19.2645Z" fill="#00CFBE"/>
</svg>
