<svg width="24" height="24" viewBox="0 0 24 24" fill="none" xmlns="http://www.w3.org/2000/svg">
<path d="M19.2838 14.2151C19.1376 13.7662 18.9139 13.3451 18.6134 12.9517C18.3124 12.5588 17.9386 12.2099 17.4917 11.905C17.0445 11.6004 16.5204 11.3598 15.9189 11.1831C15.6778 11.1192 15.2538 11.0188 14.6953 10.8823C14.2961 10.785 13.9218 10.6854 13.5 10.5838V5.62805C13.9218 5.74036 14.2149 5.91877 14.5277 6.11695C15.1971 6.5407 15.6167 7.26562 15.7397 8.25H18.9822C18.9516 7.40625 18.7643 6.71438 18.4199 6.09281C18.0416 5.41111 17.5304 4.82606 16.8857 4.3605C16.2412 3.89541 15.4689 3.54066 14.618 3.30792C14.2485 3.207 13.9219 3.12211 13.5 3.06497V1.5H10.5V3.0547C10.1719 3.10364 9.78994 3.16931 9.44878 3.25392C8.64056 3.45469 7.93059 3.76336 7.29483 4.18036C6.65869 4.59778 6.15333 5.12311 5.76652 5.75663C5.37975 6.39052 5.18939 7.14038 5.18939 8.00663C5.18939 8.45592 5.25534 8.89692 5.38425 9.33014C5.51325 9.76331 5.73309 10.1723 6.04247 10.5574C6.35198 10.9424 6.7688 11.2913 7.29342 11.6042C7.81763 11.9169 8.45147 12.1697 9.2423 12.3622C9.67763 12.4721 10.125 12.5747 10.5 12.6705V18.276C9.98433 18.1392 9.47391 17.9292 9.06192 17.6442C8.63208 17.3476 8.30883 16.9902 8.06827 16.5247C7.84425 16.092 7.73672 15.5625 7.72106 15H4.5C4.53258 15.9844 4.74609 16.8513 5.14087 17.5955C5.55333 18.3738 6.10336 18.9999 6.79106 19.4969C7.47834 19.9943 8.26261 20.3573 9.19097 20.598C9.60745 20.706 10.0781 20.7836 10.5 20.8432V22.5H13.5V20.8809C13.9688 20.8308 14.3886 20.7548 14.8372 20.6522C15.7138 20.4519 16.5081 20.1349 17.1958 19.7018C17.883 19.2687 18.4436 18.7114 18.865 18.0292C19.286 17.3476 19.5 16.5253 19.5 15.5627C19.5 15.1138 19.4296 14.6644 19.2838 14.2151ZM10.5 9.82964C9.9375 9.65419 9.37913 9.40364 8.99761 9.07739C8.5935 8.73263 8.40356 8.25548 8.40356 7.64559C8.40356 7.21242 8.51672 6.85153 8.73187 6.56269C8.94656 6.27389 9.1965 6.04528 9.52313 5.87686C9.81281 5.72738 10.1719 5.616 10.5 5.54227V9.82964ZM16.0735 16.8502C15.9358 17.163 15.7126 17.4397 15.4031 17.6804C15.0936 17.921 14.6651 18.1177 14.1667 18.27C13.9557 18.3345 13.7812 18.3845 13.5 18.4216V13.4009C13.9687 13.5239 14.3521 13.6508 14.734 13.782C15.1119 13.9106 15.4722 14.1309 15.7904 14.4437C16.1085 14.7566 16.2736 15.242 16.2736 15.8996C16.2737 16.2207 16.211 16.5374 16.0735 16.8502Z" fill="#787E82"/>
</svg>
