<svg width="18" height="13" viewBox="0 0 18 13" fill="none" xmlns="http://www.w3.org/2000/svg">
<path d="M2.46502 0.676498H16.4441C17.266 0.676498 17.9347 1.34677 17.9347 2.17064V10.8294C17.9347 11.6533 17.266 12.3236 16.4441 12.3236H2.46502C1.64307 12.3236 0.974358 11.6533 0.974358 10.8294V2.17064C0.974358 1.34677 1.64307 0.676498 2.46502 0.676498ZM2.65956 1.67259L2.85852 1.83864L8.86312 6.85035C9.20584 7.13637 9.70332 7.13637 10.046 6.85035L16.0506 1.83864L16.2495 1.67259H2.65956ZM16.941 2.39171L12.0486 6.47513L16.941 9.73876V2.39171ZM2.46502 11.3275H16.4441C16.6842 11.3275 16.885 11.1559 16.931 10.9287L11.2517 7.14015L10.6819 7.61582C10.3263 7.91259 9.89038 8.06097 9.45451 8.06097C9.01864 8.06097 8.58277 7.91259 8.22717 7.61582L7.65727 7.14015L1.97807 10.9286C2.02411 11.1559 2.22492 11.3275 2.46502 11.3275ZM1.96813 9.73876L6.86053 6.47516L1.96813 2.39171V9.73876Z" fill="#A0A7AB"/>
</svg>
