<svg width="24" height="24" viewBox="0 0 24 24" fill="none" xmlns="http://www.w3.org/2000/svg">
<path d="M16.8 17.6H14.4C13.3423 17.5978 12.3068 17.2961 11.4134 16.7298C10.52 16.1635 9.80532 15.3557 9.352 14.4H14.4C14.6122 14.4 14.8157 14.3158 14.9657 14.1657C15.1157 14.0157 15.2 13.8122 15.2 13.6C15.2 13.3879 15.1157 13.1844 14.9657 13.0344C14.8157 12.8843 14.6122 12.8 14.4 12.8H8.864C8.77867 12.2701 8.77867 11.73 8.864 11.2H15.2C15.4122 11.2 15.6157 11.1158 15.7657 10.9657C15.9157 10.8157 16 10.6122 16 10.4C16 10.1879 15.9157 9.98439 15.7657 9.83436C15.6157 9.68433 15.4122 9.60005 15.2 9.60005H9.352C9.80532 8.64437 10.52 7.83661 11.4134 7.27029C12.3068 6.70397 13.3423 6.40225 14.4 6.40005H16.8C17.0122 6.40005 17.2157 6.31576 17.3657 6.16573C17.5157 6.0157 17.6 5.81222 17.6 5.60005C17.6 5.38788 17.5157 5.18439 17.3657 5.03436C17.2157 4.88433 17.0122 4.80005 16.8 4.80005H14.4C12.9132 4.80257 11.4636 5.26534 10.2503 6.1248C9.03705 6.98425 8.11961 8.19825 7.624 9.60005H5.6C5.38783 9.60005 5.18434 9.68433 5.03431 9.83436C4.88429 9.98439 4.8 10.1879 4.8 10.4C4.8 10.6122 4.88429 10.8157 5.03431 10.9657C5.18434 11.1158 5.38783 11.2 5.6 11.2H7.248C7.18397 11.7315 7.18397 12.2686 7.248 12.8H4.8C4.58783 12.8 4.38434 12.8843 4.23431 13.0344C4.08429 13.1844 4 13.3879 4 13.6C4 13.8122 4.08429 14.0157 4.23431 14.1657C4.38434 14.3158 4.58783 14.4 4.8 14.4H7.624C8.11961 15.8019 9.03705 17.0158 10.2503 17.8753C11.4636 18.7348 12.9132 19.1975 14.4 19.2H16.8C17.0122 19.2 17.2157 19.1158 17.3657 18.9657C17.5157 18.8157 17.6 18.6122 17.6 18.4C17.6 18.1879 17.5157 17.9844 17.3657 17.8344C17.2157 17.6843 17.0122 17.6 16.8 17.6Z" fill="#787E82"/>
</svg>
