<svg width="24" height="24" viewBox="0 0 24 24" fill="none" xmlns="http://www.w3.org/2000/svg">
<path d="M18.8036 15.2277V20.1429C18.8036 20.2679 18.7634 20.3705 18.6831 20.4509C18.6027 20.5313 18.5 20.5714 18.375 20.5714H5.57145C5.44645 20.5714 5.34378 20.5313 5.26342 20.4509C5.18306 20.3705 5.14288 20.2679 5.14288 20.1429V18.1339C5.14288 18.0179 5.18529 17.9174 5.27012 17.8326C5.35494 17.7478 5.45538 17.7054 5.57145 17.7054H6.87056V12.5759H5.59824C5.47324 12.5759 5.37056 12.5335 5.2902 12.4487C5.20985 12.3638 5.16967 12.2634 5.16967 12.1473V10.3929C5.16967 10.2679 5.20985 10.1652 5.2902 10.0848C5.37056 10.0045 5.47324 9.96429 5.59824 9.96429H6.87056V6.97769C6.87056 5.4509 7.4219 4.19197 8.52458 3.2009C9.62726 2.20983 11.0313 1.71429 12.7366 1.71429C14.3884 1.71429 15.884 2.27233 17.2232 3.3884C17.3036 3.45983 17.3482 3.55135 17.3572 3.66296C17.3661 3.77456 17.3348 3.87501 17.2634 3.96429L15.884 5.66519C15.8036 5.7634 15.7054 5.81697 15.5893 5.8259C15.4732 5.84376 15.3706 5.81251 15.2813 5.73215C15.2366 5.68751 15.1206 5.60269 14.9331 5.47769C14.7456 5.35269 14.4375 5.20983 14.009 5.04912C13.5804 4.8884 13.1652 4.80804 12.7634 4.80804C12.0045 4.80804 11.3929 5.01787 10.9286 5.43751C10.4643 5.85715 10.2322 6.40626 10.2322 7.08483V9.96429H14.317C14.4331 9.96429 14.5335 10.0045 14.6183 10.0848C14.7032 10.1652 14.7456 10.2679 14.7456 10.3929V12.1473C14.7456 12.2634 14.7032 12.3638 14.6183 12.4487C14.5335 12.5335 14.4331 12.5759 14.317 12.5759H10.2322V17.6518H15.7768V15.2277C15.7768 15.1116 15.817 15.0112 15.8973 14.9263C15.9777 14.8415 16.0804 14.7991 16.2054 14.7991H18.375C18.5 14.7991 18.6027 14.8415 18.6831 14.9263C18.7634 15.0112 18.8036 15.1116 18.8036 15.2277Z" fill="#787E82"/>
</svg>
