<svg width="32" height="32" viewBox="0 0 32 32" fill="none" xmlns="http://www.w3.org/2000/svg">
<path d="M28.694 6.5H29.5C30.0304 6.5 30.5391 6.71071 30.9142 7.08579C31.2893 7.46086 31.5 7.96957 31.5 8.5V29.5C31.5 30.0304 31.2893 30.5391 30.9142 30.9142C30.5391 31.2893 30.0304 31.5 29.5 31.5H2.5C1.96957 31.5 1.46086 31.2893 1.08579 30.9142C0.710714 30.5391 0.5 30.0304 0.5 29.5V8C0.5 7.60218 0.658035 7.22064 0.93934 6.93934C1.22064 6.65804 1.60218 6.5 2 6.5H3.5" fill="white"/>
<path d="M28.694 6.5H29.5C30.0304 6.5 30.5391 6.71071 30.9142 7.08579C31.2893 7.46086 31.5 7.96957 31.5 8.5V12.5H0.5V8C0.5 7.60218 0.658035 7.22064 0.93934 6.93934C1.22064 6.65804 1.60218 6.5 2 6.5" fill="#1E87FF"/>
<path d="M16 27.5C19.5899 27.5 22.5 24.5899 22.5 21C22.5 17.4101 19.5899 14.5 16 14.5C12.4101 14.5 9.5 17.4101 9.5 21C9.5 24.5899 12.4101 27.5 16 27.5Z" fill="#BAC0C2"/>
<path d="M6.5 5C6.5 4.17157 5.82843 3.5 5 3.5C4.17157 3.5 3.5 4.17157 3.5 5V8C3.5 8.82843 4.17157 9.5 5 9.5C5.82843 9.5 6.5 8.82843 6.5 8V5Z" fill="white"/>
<path d="M28.5 5C28.5 4.17157 27.8284 3.5 27 3.5C26.1716 3.5 25.5 4.17157 25.5 5V8C25.5 8.82843 26.1716 9.5 27 9.5C27.8284 9.5 28.5 8.82843 28.5 8V5Z" fill="white"/>
<path d="M26.5 22.5H28.5C28.6326 22.5 28.7598 22.4473 28.8536 22.3536C28.9473 22.2598 29 22.1326 29 22V20C29 19.8674 28.9473 19.7402 28.8536 19.6464C28.7598 19.5527 28.6326 19.5 28.5 19.5H26.5C26.3674 19.5 26.2402 19.5527 26.1464 19.6464C26.0527 19.7402 26 19.8674 26 20V22C26 22.1326 26.0527 22.2598 26.1464 22.3536C26.2402 22.4473 26.3674 22.5 26.5 22.5ZM27 20.5H28V21.5H27V20.5ZM18.5 8H13.5C13.3674 8 13.2402 8.05268 13.1464 8.14645C13.0527 8.24021 13 8.36739 13 8.5C13 8.63261 13.0527 8.75979 13.1464 8.85355C13.2402 8.94732 13.3674 9 13.5 9H18.5C18.6326 9 18.7598 8.94732 18.8536 8.85355C18.9473 8.75979 19 8.63261 19 8.5C19 8.36739 18.9473 8.24021 18.8536 8.14645C18.7598 8.05268 18.6326 8 18.5 8ZM26.5 17H28.5C28.6326 17 28.7598 16.9473 28.8536 16.8536C28.9473 16.7598 29 16.6326 29 16.5V14.5C29 14.3674 28.9473 14.2402 28.8536 14.1464C28.7598 14.0527 28.6326 14 28.5 14H26.5C26.3674 14 26.2402 14.0527 26.1464 14.1464C26.0527 14.2402 26 14.3674 26 14.5V16.5C26 16.6326 26.0527 16.7598 26.1464 16.8536C26.2402 16.9473 26.3674 17 26.5 17ZM27 15H28V16H27V15ZM29.5 5H29V4C29 3.46957 28.7893 2.96086 28.4142 2.58579C28.0391 2.21071 27.5304 2 27 2C26.4696 2 25.9609 2.21071 25.5858 2.58579C25.2107 2.96086 25 3.46957 25 4V5H7V4C7 3.46957 6.78929 2.96086 6.41421 2.58579C6.03914 2.21071 5.53043 2 5 2C4.46957 2 3.96086 2.21071 3.58579 2.58579C3.21071 2.96086 3 3.46957 3 4V5H2C1.46957 5 0.960859 5.21071 0.585786 5.58579C0.210714 5.96086 0 6.46957 0 7L0 28.5C0 29.163 0.263392 29.7989 0.732233 30.2678C1.20107 30.7366 1.83696 31 2.5 31H29.5C30.163 31 30.7989 30.7366 31.2678 30.2678C31.7366 29.7989 32 29.163 32 28.5V7.5C32 6.83696 31.7366 6.20107 31.2678 5.73223C30.7989 5.26339 30.163 5 29.5 5ZM26 4C26 3.73478 26.1054 3.48043 26.2929 3.29289C26.4804 3.10536 26.7348 3 27 3C27.2652 3 27.5196 3.10536 27.7071 3.29289C27.8946 3.48043 28 3.73478 28 4V7C28 7.26522 27.8946 7.51957 27.7071 7.70711C27.5196 7.89464 27.2652 8 27 8C26.7348 8 26.4804 7.89464 26.2929 7.70711C26.1054 7.51957 26 7.26522 26 7V4ZM4 4C4 3.73478 4.10536 3.48043 4.29289 3.29289C4.48043 3.10536 4.73478 3 5 3C5.26522 3 5.51957 3.10536 5.70711 3.29289C5.89464 3.48043 6 3.73478 6 4V7C6 7.26522 5.89464 7.51957 5.70711 7.70711C5.51957 7.89464 5.26522 8 5 8C4.73478 8 4.48043 7.89464 4.29289 7.70711C4.10536 7.51957 4 7.26522 4 7V4ZM31 28.5C31 28.8978 30.842 29.2794 30.5607 29.5607C30.2794 29.842 29.8978 30 29.5 30H2.5C2.10218 30 1.72064 29.842 1.43934 29.5607C1.15804 29.2794 1 28.8978 1 28.5V12H31V28.5ZM31 11H1V7C1 6.73478 1.10536 6.48043 1.29289 6.29289C1.48043 6.10536 1.73478 6 2 6H3V7C3 7.53043 3.21071 8.03914 3.58579 8.41421C3.96086 8.78929 4.46957 9 5 9C5.53043 9 6.03914 8.78929 6.41421 8.41421C6.78929 8.03914 7 7.53043 7 7V6H25V7C25 7.53043 25.2107 8.03914 25.5858 8.41421C25.9609 8.78929 26.4696 9 27 9C27.5304 9 28.0391 8.78929 28.4142 8.41421C28.7893 8.03914 29 7.53043 29 7V6H29.5C29.8978 6 30.2794 6.15804 30.5607 6.43934C30.842 6.72064 31 7.10218 31 7.5V11ZM16 28C17.3845 28 18.7378 27.5895 19.889 26.8203C21.0401 26.0511 21.9373 24.9579 22.4672 23.6788C22.997 22.3997 23.1356 20.9922 22.8655 19.6344C22.5954 18.2765 21.9287 17.0292 20.9497 16.0503C19.9708 15.0713 18.7235 14.4046 17.3656 14.1345C16.0078 13.8644 14.6003 14.003 13.3212 14.5328C12.0421 15.0627 10.9489 15.9599 10.1797 17.111C9.41054 18.2622 9 19.6155 9 21C9.00212 22.8559 9.7403 24.6351 11.0526 25.9474C12.3649 27.2597 14.1441 27.9979 16 28V28ZM16 15C17.1867 15 18.3467 15.3519 19.3334 16.0112C20.3201 16.6705 21.0892 17.6075 21.5433 18.7039C21.9974 19.8003 22.1162 21.0067 21.8847 22.1705C21.6532 23.3344 21.0818 24.4035 20.2426 25.2426C19.4035 26.0818 18.3344 26.6532 17.1705 26.8847C16.0067 27.1162 14.8003 26.9974 13.7039 26.5433C12.6075 26.0892 11.6705 25.3201 11.0112 24.3334C10.3519 23.3467 10 22.1867 10 21C10.0019 19.4093 10.6346 17.8842 11.7594 16.7594C12.8842 15.6346 14.4093 15.0019 16 15ZM3.5 22.5H5.5C5.63261 22.5 5.75979 22.4473 5.85355 22.3536C5.94732 22.2598 6 22.1326 6 22V20C6 19.8674 5.94732 19.7402 5.85355 19.6464C5.75979 19.5527 5.63261 19.5 5.5 19.5H3.5C3.36739 19.5 3.24021 19.5527 3.14645 19.6464C3.05268 19.7402 3 19.8674 3 20V22C3 22.1326 3.05268 22.2598 3.14645 22.3536C3.24021 22.4473 3.36739 22.5 3.5 22.5ZM4 20.5H5V21.5H4V20.5ZM3.5 17H5.5C5.63261 17 5.75979 16.9473 5.85355 16.8536C5.94732 16.7598 6 16.6326 6 16.5V14.5C6 14.3674 5.94732 14.2402 5.85355 14.1464C5.75979 14.0527 5.63261 14 5.5 14H3.5C3.36739 14 3.24021 14.0527 3.14645 14.1464C3.05268 14.2402 3 14.3674 3 14.5V16.5C3 16.6326 3.05268 16.7598 3.14645 16.8536C3.24021 16.9473 3.36739 17 3.5 17ZM4 15H5V16H4V15ZM26.5 28H28.5C28.6326 28 28.7598 27.9473 28.8536 27.8536C28.9473 27.7598 29 27.6326 29 27.5V25.5C29 25.3674 28.9473 25.2402 28.8536 25.1464C28.7598 25.0527 28.6326 25 28.5 25H26.5C26.3674 25 26.2402 25.0527 26.1464 25.1464C26.0527 25.2402 26 25.3674 26 25.5V27.5C26 27.6326 26.0527 27.7598 26.1464 27.8536C26.2402 27.9473 26.3674 28 26.5 28ZM27 26H28V27H27V26ZM3.5 28H5.5C5.63261 28 5.75979 27.9473 5.85355 27.8536C5.94732 27.7598 6 27.6326 6 27.5V25.5C6 25.3674 5.94732 25.2402 5.85355 25.1464C5.75979 25.0527 5.63261 25 5.5 25H3.5C3.36739 25 3.24021 25.0527 3.14645 25.1464C3.05268 25.2402 3 25.3674 3 25.5V27.5C3 27.6326 3.05268 27.7598 3.14645 27.8536C3.24021 27.9473 3.36739 28 3.5 28ZM4 26H5V27H4V26ZM16.5 23.5H15.5C15.2348 23.5 14.9804 23.3946 14.7929 23.2071C14.6054 23.0196 14.5 22.7652 14.5 22.5C14.5 22.3674 14.4473 22.2402 14.3536 22.1464C14.2598 22.0527 14.1326 22 14 22C13.8674 22 13.7402 22.0527 13.6464 22.1464C13.5527 22.2402 13.5 22.3674 13.5 22.5C13.5 23.0304 13.7107 23.5391 14.0858 23.9142C14.4609 24.2893 14.9696 24.5 15.5 24.5V25C15.5 25.1326 15.5527 25.2598 15.6464 25.3536C15.7402 25.4473 15.8674 25.5 16 25.5C16.1326 25.5 16.2598 25.4473 16.3536 25.3536C16.4473 25.2598 16.5 25.1326 16.5 25V24.5C17.0304 24.5 17.5391 24.2893 17.9142 23.9142C18.2893 23.5391 18.5 23.0304 18.5 22.5C18.5 21.9696 18.2893 21.4609 17.9142 21.0858C17.5391 20.7107 17.0304 20.5 16.5 20.5H15.5C15.2348 20.5 14.9804 20.3946 14.7929 20.2071C14.6054 20.0196 14.5 19.7652 14.5 19.5C14.5 19.2348 14.6054 18.9804 14.7929 18.7929C14.9804 18.6054 15.2348 18.5 15.5 18.5H16.5C16.7652 18.5 17.0196 18.6054 17.2071 18.7929C17.3946 18.9804 17.5 19.2348 17.5 19.5C17.5 19.6326 17.5527 19.7598 17.6464 19.8536C17.7402 19.9473 17.8674 20 18 20C18.1326 20 18.2598 19.9473 18.3536 19.8536C18.4473 19.7598 18.5 19.6326 18.5 19.5C18.5 18.9696 18.2893 18.4609 17.9142 18.0858C17.5391 17.7107 17.0304 17.5 16.5 17.5V17C16.5 16.8674 16.4473 16.7402 16.3536 16.6464C16.2598 16.5527 16.1326 16.5 16 16.5C15.8674 16.5 15.7402 16.5527 15.6464 16.6464C15.5527 16.7402 15.5 16.8674 15.5 17V17.5C14.9696 17.5 14.4609 17.7107 14.0858 18.0858C13.7107 18.4609 13.5 18.9696 13.5 19.5C13.5 20.0304 13.7107 20.5391 14.0858 20.9142C14.4609 21.2893 14.9696 21.5 15.5 21.5H16.5C16.7652 21.5 17.0196 21.6054 17.2071 21.7929C17.3946 21.9804 17.5 22.2348 17.5 22.5C17.5 22.7652 17.3946 23.0196 17.2071 23.2071C17.0196 23.3946 16.7652 23.5 16.5 23.5Z" fill="black"/>
</svg>
