<svg width="24" height="24" viewBox="0 0 24 24" fill="none" xmlns="http://www.w3.org/2000/svg">
<path fill-rule="evenodd" clip-rule="evenodd" d="M6 21C6.55229 21 7 20.5523 7 20L7 4C7 3.44771 6.55229 3 6 3C5.44772 3 5 3.44771 5 4L5 20C5 20.5523 5.44771 21 6 21ZM16.0153 14.9925C16.1205 14.9753 16.2246 14.9277 16.3119 14.8451L18.7675 12.5289C19.0775 12.2365 19.0775 11.7628 18.7675 11.4704L16.3119 9.15418C15.9628 8.8249 15.3637 9.05783 15.3637 9.52431L15.3637 11.1422L9.9091 11.1422C9.40728 11.1422 9 11.5263 9 11.9997C9 12.473 9.40728 12.8571 9.9091 12.8571L15.3637 12.8571L15.3637 14.475C15.3637 14.8249 15.6998 15.0441 16.0153 14.9925Z" fill="#1E2328"/>
</svg>
