<svg width="24" height="24" viewBox="0 0 24 24" fill="none" xmlns="http://www.w3.org/2000/svg">
<path fill-rule="evenodd" clip-rule="evenodd" d="M18 3C17.4477 3 17 3.44772 17 4V20C17 20.5523 17.4477 21 18 21C18.5523 21 19 20.5523 19 20V4C19 3.44772 18.5523 3 18 3ZM7.98466 9.00749C7.87949 9.02468 7.77541 9.07234 7.68814 9.15487L5.2325 11.4711C4.9225 11.7635 4.9225 12.2372 5.2325 12.5296L7.68814 14.8458C8.03723 15.1751 8.6363 14.9422 8.6363 14.4757V12.8578H14.0909C14.5927 12.8578 15 12.4737 15 12.0003C15 11.527 14.5927 11.1429 14.0909 11.1429H8.6363V9.525C8.6363 9.17515 8.30017 8.95592 7.98466 9.00749Z" fill="#000000"/>
</svg>
