<svg width="13" height="17" viewBox="0 0 13 17" fill="none" xmlns="http://www.w3.org/2000/svg">
<path d="M11.0032 7.2296V4.53742C11.0104 3.31927 10.5239 2.14798 9.65529 1.29383C8.81556 0.457706 7.71635 0 6.55226 0C6.53424 0 6.51262 0 6.4946 0C4.01145 0.00360399 1.99322 2.03625 1.99322 4.53742V7.2296C1.05618 7.34132 0.371426 8.12699 0.371426 9.07844V15.1259C0.371426 16.1531 1.19313 17 2.22027 17H10.7797C11.8069 17 12.6286 16.1531 12.6286 15.1259V9.07844C12.625 8.13059 11.9402 7.34132 11.0032 7.2296ZM2.71041 4.53742H2.71402C2.71402 2.43269 4.41149 0.709985 6.4982 0.709985H6.5018C7.4929 0.706381 8.44435 1.09922 9.14713 1.79839C9.87874 2.52279 10.286 3.51028 10.2788 4.53742V7.2332H9.48591V4.53742C9.49311 3.71931 9.16875 2.93364 8.58851 2.35701C8.04071 1.8092 7.29829 1.49926 6.52343 1.49926H6.5018C4.84397 1.49926 3.50329 2.86156 3.50329 4.53381V7.2332H2.71041V4.53742ZM8.76871 4.53742V7.2332H4.22769V4.53742C4.22769 3.26161 5.24401 2.22366 6.50541 2.22366H6.52703C7.11088 2.22366 7.6731 2.45792 8.08756 2.87238C8.52724 3.31206 8.77592 3.91393 8.76871 4.53742ZM11.9402 15.1367C11.9402 15.7674 11.4285 16.2792 10.7978 16.2792H2.23469C1.60399 16.2792 1.09222 15.7674 1.09222 15.1367V9.09646C1.09222 8.46576 1.60399 7.954 2.23469 7.954H10.7978C11.4285 7.954 11.9402 8.46576 11.9402 9.09646V15.1367Z" fill="#A0A7AB"/>
</svg>
