<svg width="200" height="120" viewBox="0 0 200 120" fill="none" xmlns="http://www.w3.org/2000/svg">
<rect width="200" height="120" fill="white"/>
<path d="M117.88 52.344C115.571 44.4827 108.397 39 100 39C93.8907 39 88.1627 42.0347 84.688 47.0107C75.4267 47.352 68 54.992 68 64.3333C68 73.8907 75.776 81.6667 85.3333 81.6667H117.333C125.419 81.6667 132 75.088 132 67C132 59.096 125.715 52.632 117.88 52.344ZM105.333 54.3333C107.173 54.3333 108.667 55.8267 108.667 57.6667C108.667 59.5067 107.173 61 105.333 61C103.493 61 102 59.5067 102 57.6667C102 55.8267 103.493 54.3333 105.333 54.3333ZM94.6667 54.3333C96.5067 54.3333 98 55.8267 98 57.6667C98 59.5067 96.5067 61 94.6667 61C92.8267 61 91.3333 59.5067 91.3333 57.6667C91.3333 55.8267 92.8267 54.3333 94.6667 54.3333ZM100 71C97.064 71 94.784 70.3173 93.1547 69.56C91.4747 68.776 91.072 66.5813 92.3707 65.2587C93.1573 64.4587 94.3493 64.2267 95.3653 64.704C96.3867 65.184 97.9253 65.6667 100 65.6667C102.075 65.6667 103.613 65.184 104.635 64.704C105.651 64.2267 106.843 64.4587 107.629 65.2587C108.928 66.5787 108.525 68.776 106.845 69.56C105.216 70.3173 102.936 71 100 71Z" fill="#BAC0C2"/>
</svg>
